# xmcd CD database file
#
# Track frame offsets:
#	180
#	17125
#	33931
#	59286
#	76380
#	95555
#	115524
#	137624
#	154870
#	181473
#	193245
#	208736
#	229778
#	244376
#
# Disc length: 3505 seconds
#
# Revision: 0
# Processed by: cddbd v1.5.2PL0 Copyright (c) Steve Scherf et al.
# Submitted via: CDex 1.51
#
DISCID=bd0daf0e
DTITLE=NACHO SANABRIA - GRANDES ÉXITOS DE NACHO SANABRIA
DYEAR=1994
DGENRE=Salsa
TTITLE0=CONSUÉLATE COMO YO
TTITLE1=MAMBO BATIRI
TTITLE2=SANSÓN BATALLA
TTITLE3=ROMANCE GUAJIRO
TTITLE4=MULATO RUMBERO
TTITLE5=TROMPO DE JUGUETE
TTITLE6=LA RUÑIDERA
TTITLE7=PA' COLOMBIA
TTITLE8=RUMBA MODERNA
TTITLE9=SIN CARIÑO Y SIN DINERO
TTITLE10=CANTAR FAÑOSO
TTITLE11=RUMBA PA' LOS RUMBEROS
TTITLE12=DIOS ME LIBRE
TTITLE13=ESO SE HINCHA
EXTD=YEAR: 1994
EXTT0=
EXTT1=
EXTT2=
EXTT3=
EXTT4=
EXTT5=
EXTT6=
EXTT7=
EXTT8=
EXTT9=
EXTT10=
EXTT11=
EXTT12=
EXTT13=
PLAYORDER=
